Coordinates
version=1
nRows=10
nColumns=40
inDegrees=yes

Units are S.I. units (second, meters, Newtons, ...)
Angles are in degrees.

endheader
time	pelvis_tilt	pelvis_list	pelvis_rotation	pelvis_tx	pelvis_ty	pelvis_tz	hip_flexion_r	hip_adduction_r	hip_rotation_r	knee_angle_r	knee_angle_r_beta	ankle_angle_r	subtalar_angle_r	mtp_angle_r	hip_flexion_l	hip_adduction_l	hip_rotation_l	knee_angle_l	knee_angle_l_beta	ankle_angle_l	subtalar_angle_l	mtp_angle_l	lumbar_extension	lumbar_bending	lumbar_rotation	arm_flex_r	arm_add_r	arm_rot_r	elbow_flex_r	pro_sup_r	wrist_flex_r	wrist_dev_r	arm_flex_l	arm_add_l	arm_rot_l	elbow_flex_l	pro_sup_l	wrist_flex_l	wrist_dev_l
      9.98214286	     -2.61523057	     -6.12762058	      4.40260880	      0.90214317	      0.91982162	      0.48574511	     -2.04643676	      5.57284712	    -18.09769463	     10.87443069	     10.87443069	     17.53498434	      3.55120657	     -5.77147469	     29.26862610	     -7.98537646	     -3.24936731	     22.24261502	     22.24261502	      2.03017552	    -11.51214329	      5.63754059	     -7.69605563	      7.80162164	      4.11921767	     38.99426704	    -17.25622618	     -9.84913712	     85.80602054	     44.69060608	      0.00000000	      0.00000000	    -14.33615190	     -7.19323711	     -0.87435520	     24.02847688	     45.78146588	      0.00000000	      0.00000000
      9.99428571	     -2.78625517	     -6.00160437	      4.29643816	      0.90276646	      0.91845569	      0.48393889	     -1.86348196	      5.19942759	    -17.53249205	     12.01175673	     12.01175673	     18.36562343	      2.51854369	     -4.95533869	     29.24420520	     -7.61969752	     -2.52731281	     23.16343872	     23.16343872	      1.86043852	    -12.98993329	      5.33297539	     -7.45519499	      7.62317328	      3.92241074	     38.59100318	    -16.95679068	     -9.72366931	     87.45810670	     44.64790867	      0.00000000	      0.00000000	    -14.43311305	     -7.19412130	     -0.71269454	     23.92554125	     45.75494862	      0.00000000	      0.00000000
     10.00642857	     -2.66625724	     -5.77039911	      4.20550198	      0.90374079	      0.91787976	      0.48198781	     -2.37824838	      4.78998368	    -17.28175025	     12.42528575	     12.42528575	     18.66683925	      2.27744057	     -4.86772563	     28.90311458	     -7.30448195	     -2.34097876	     24.10735287	     24.10735287	      2.20238941	    -13.53396599	      5.01733830	     -7.44888021	      7.26489712	      3.80385681	     38.19120300	    -16.80918729	     -9.66927980	     87.65103912	     44.64103858	      0.00000000	      0.00000000	    -14.34888606	     -7.18507816	     -0.67796701	     23.90409101	     45.75125538	      0.00000000	      0.00000000
     10.01857143	     -2.73574103	     -5.59507358	      4.09736277	      0.90437673	      0.91706230	      0.47993294	     -2.26177558	      4.32766325	    -16.79664294	     13.62388539	     13.62388539	     19.19512495	      1.38988098	     -4.46183239	     28.87557187	     -6.96903585	     -1.90650632	     25.10646293	     25.10646293	      2.62828437	    -14.45595923	      4.70373313	     -7.32519136	      7.04622038	      3.63088954	     37.66642385	    -16.60437169	     -9.59370906	     88.59754083	     44.61440340	      0.00000000	      0.00000000	    -14.15896160	     -7.19402915	     -0.58672771	     23.78793860	     45.74218268	      0.00000000	      0.00000000
     10.03071429	     -2.64560706	     -5.32706803	      4.08172384	      0.90526303	      0.91700381	      0.47763851	     -2.68478645	      3.84896626	    -16.58951630	     14.11590363	     14.11590363	     19.30334113	      1.06307854	     -4.33702481	     28.52432335	     -6.56060863	     -1.67169849	     25.81949375	     25.81949375	      3.24270114	    -14.87867660	      4.37252357	     -7.29374561	      6.67543822	      3.42145232	     36.89905962	    -16.38891506	     -9.48048975	     88.67963028	     44.60715496	      0.00000000	      0.00000000	    -13.79962381	     -7.09747116	     -0.54119859	     23.85561118	     45.74144632	      0.00000000	      0.00000000
     10.04285714	     -2.73861104	     -5.08361952	      3.97154594	      0.90569563	      0.91681503	      0.47529323	     -2.25941308	      3.26629377	    -15.78415248	     15.84433783	     15.84433783	     20.17217780	     -0.28378458	     -2.19403625	     28.46424486	     -6.14267546	     -1.38881250	     26.63850618	     26.63850618	      4.13189910	    -15.56544108	      4.98312540	     -7.23197205	      6.40403203	      4.12320351	     34.97451696	    -17.09939082	    -10.00708631	     91.16963910	     44.58305542	      0.00000000	      0.00000000	    -12.64119425	     -7.20078204	     -0.06410436	     23.12563827	     45.69888112	      0.00000000	      0.00000000
     10.05500000	     -2.67752986	     -4.80489966	      3.92280918	      0.90631009	      0.91706882	      0.47270433	     -2.20203729	      2.59860953	    -15.62033753	     17.17499629	     17.17499629	     20.25360006	     -0.71358479	     -2.29104891	     28.12629749	     -5.73760872	     -1.34279752	     27.25374931	     27.25374931	      4.90221309	    -15.86281992	      4.75692539	     -7.21308929	      6.09032496	      3.88292141	     34.02990925	    -16.85888302	     -9.92396214	     91.09202927	     44.58716420	      0.00000000	      0.00000000	    -12.10858441	     -7.16084198	      0.04398861	     23.16518568	     45.69211183	      0.00000000	      0.00000000
     10.06714286	     -2.58645744	     -4.56776968	      3.87758709	      0.90693834	      0.91763130	      0.47002171	     -2.09983071	      1.95636398	    -15.42272471	     18.62173378	     18.62173378	     20.17047156	     -1.23613874	     -2.46309537	     27.67509474	     -5.36836744	     -1.33631381	     27.71564223	     27.71564223	      5.66573439	    -16.11526062	      4.62762613	     -7.23058571	      5.85754494	      3.69424425	     32.84146161	    -16.71256383	     -9.78805328	     90.96952419	     44.58854753	      0.00000000	      0.00000000	    -11.47800022	     -7.14529264	      0.12228191	     23.27569265	     45.69199260	      0.00000000	      0.00000000
     10.07928571	     -2.52032467	     -4.36197524	      3.84743771	      0.90742596	      0.91833686	      0.46721222	     -1.80695490	      1.29472449	    -15.21797388	     20.34263843	     20.34263843	     19.93870199	     -1.80782345	     -2.77806529	     27.17091976	     -5.02135974	     -1.39501931	     28.00751699	     28.00751699	      6.45317726	    -16.25738664	      4.53436279	     -7.26029064	      5.63932147	      3.55636395	     31.50735504	    -16.62725265	     -9.63278022	     90.76359793	     44.59077632	      0.00000000	      0.00000000	    -10.72570466	     -7.08646954	      0.18987190	     23.46594911	     45.69544666	      0.00000000	      0.00000000
     10.09142857	     -2.55572292	     -4.11781387	      3.76128965	      0.90778485	      0.91901587	      0.46441071	     -1.10035215	      0.49279436	    -15.01649552	     22.61596929	     22.61596929	     19.58782853	     -2.62196305	     -3.45996623	     26.68166599	     -4.65071949	     -1.54590031	     28.14736961	     28.14736961	      7.17291023	    -16.24847485	      4.62144489	     -7.11200286	      5.44586998	      3.61179203	     29.93829201	    -16.73720428	     -9.50833570	     90.50825106	     44.59793924	      0.00000000	      0.00000000	     -9.80071379	     -6.98856436	      0.26949130	     23.72895988	     45.70019957	      0.00000000	      0.00000000
